<svg id="Capa_1" data-name="Capa 1" xmlns="http://www.w3.org/2000/svg" xmlns:xlink="http://www.w3.org/1999/xlink" viewBox="0 0 1381.89 364.5"><defs><style>.cls-1{fill:url(#Degradado_sin_nombre_62);}.cls-2{fill:url(#Degradado_sin_nombre_62-2);}.cls-3{fill:url(#Degradado_sin_nombre_62-3);}.cls-4{fill:url(#Degradado_sin_nombre_62-4);}.cls-5{fill:url(#Degradado_sin_nombre_62-5);}.cls-6{fill:url(#Degradado_sin_nombre_62-6);}.cls-7{fill:url(#Degradado_sin_nombre_64);}</style><linearGradient id="Degradado_sin_nombre_62" x1="588.09" y1="322.61" x2="154.38" y2="603.76" gradientUnits="userSpaceOnUse"><stop offset="0" stop-color="#bb00d4"/><stop offset="0.5" stop-color="#6a84ff"/><stop offset="0.52" stop-color="#647efe"/><stop offset="0.67" stop-color="#3954f5"/><stop offset="0.81" stop-color="#1a35ee"/><stop offset="0.92" stop-color="#0723ea"/><stop offset="1" stop-color="#001ce9"/></linearGradient><linearGradient id="Degradado_sin_nombre_62-2" x1="580.92" y1="311.54" x2="147.2" y2="592.68" xlink:href="#Degradado_sin_nombre_62"/><linearGradient id="Degradado_sin_nombre_62-3" x1="636.42" y1="397.16" x2="202.7" y2="678.3" xlink:href="#Degradado_sin_nombre_62"/><linearGradient id="Degradado_sin_nombre_62-4" x1="667.46" y1="445.04" x2="233.74" y2="726.19" xlink:href="#Degradado_sin_nombre_62"/><linearGradient id="Degradado_sin_nombre_62-5" x1="545.4" y1="143.47" x2="111.68" y2="424.61" xlink:href="#Degradado_sin_nombre_62"/><linearGradient id="Degradado_sin_nombre_62-6" x1="410.71" y1="-64.31" x2="-23.01" y2="216.83" xlink:href="#Degradado_sin_nombre_62"/><linearGradient id="Degradado_sin_nombre_64" x1="730.94" y1="515.76" x2="1528.46" y2="515.76" gradientUnits="userSpaceOnUse"><stop offset="0" stop-color="#cf5ef5"/><stop offset="0.5" stop-color="#456fed"/><stop offset="0.61" stop-color="#3d64d4"/><stop offset="0.77" stop-color="#3357b5"/><stop offset="0.91" stop-color="#2d4fa2"/><stop offset="1" stop-color="#2b4c9b"/></linearGradient></defs><path class="cls-1" d="M324,340a30.41,30.41,0,0,0-12,0c-4,.89-6.52,2.46-10.86,5.14s-7.92,4.89-11.43,9.14a36.79,36.79,0,0,0-6.29,11.43,44,44,0,0,0-1.71,22.86,37.47,37.47,0,0,0,5.71,14.28,38.06,38.06,0,0,0,9.72,9.72,40,40,0,0,0,12,6.28A41.11,41.11,0,0,0,324,420.57,37.45,37.45,0,0,0,340.58,416c2.66-1.52,5.39-3.87,10.85-8.57,5.29-4.56,5.36-5.13,8-6.86A39.32,39.32,0,0,1,372,395.43c4.7-1.22,8.28-1.37,15.42-1.72,6.26-.3,9.41-.45,13.72,0,4.82.51,10.09,1.08,16,4a44.62,44.62,0,0,1,9.14,6.29,73.6,73.6,0,0,1,9.14,9.14c3.11,3.57,4.71,5.31,6.29,8a37.12,37.12,0,0,1,4,9.71c.78,3.08.9,5.87,1.14,11.43.23,5.28.1,9.29,0,12-.12,3.32-.2,5.53-.57,8.57a47.8,47.8,0,0,1-1.71,9.15,38.41,38.41,0,0,1-4.57,9.71c-1.82,2.75-2.3,2.66-7.43,8.57-3.6,4.15-5.4,6.22-6.86,8.57a42.73,42.73,0,0,0-6.29,23.43A38.52,38.52,0,0,0,434.86,552a42,42,0,0,0,18.86,8c4.34.76,11.87,2,20.57-1.15A37.61,37.61,0,0,0,489.72,548a45.86,45.86,0,0,0,11.43-24.57c.43-3.58,1.92-15.93-5.14-26.29-4.25-6.23-6.94-4.91-12.58-12.57a50.94,50.94,0,0,1-8.57-19.43c-1.35-6.06-1.28-10.67-1.14-18.86.09-5.75.16-8.86,1.14-13.14a41.82,41.82,0,0,1,6.29-14.86c3.43-5,5.07-4.76,9.14-9.71a46.88,46.88,0,0,0,8.57-16,44,44,0,0,0,0-24.57c-1.2-4-4.35-14-14.28-21.15A37.89,37.89,0,0,0,462.86,340a41.38,41.38,0,0,0-18.28,4c-9.06,4.3-9.21,8.5-19.43,14.85A65.73,65.73,0,0,1,408,366.28c-12.22,3.33-22.23,2.12-29.72,1.15-9-1.17-13.6-1.78-18.86-5.15-3.64-2.33-3.33-3.27-12.57-10.85-6.8-5.59-9.32-7-11.43-8A40.91,40.91,0,0,0,324,340Z" transform="translate(-146.57 -339.39)"/><path class="cls-2" d="M241,414.28a30.54,30.54,0,0,0-9.43,6.43,35.69,35.69,0,0,0-6,7.72,40,40,0,0,0-4.71,12,51.13,51.13,0,0,0,0,18.85,27.51,27.51,0,0,0,3,9c1,1.84,1.12,1.31,5.57,6.86,2.53,3.16,2.51,3.33,4.71,6,2.67,3.24,3.07,3.43,4.72,5.57a48.92,48.92,0,0,1,4.28,6.43c1.31,2.44,2.48,5.47,3.43,11.14.33,1.94,1.62,10.07.43,25.29-.48,6.2-.75,9.36-1.71,12.43a45.35,45.35,0,0,1-8.58,15c-5.25,6.57-6.82,5.81-10.28,11.14a40.22,40.22,0,0,0-5.57,14.57,37.09,37.09,0,0,0,5.14,30,39.75,39.75,0,0,0,27,17.57A41,41,0,0,0,270.14,629a40.38,40.38,0,0,0,11.15-5.14,44.89,44.89,0,0,0,16.28-22.72,38.47,38.47,0,0,0,1.29-13.71A40.54,40.54,0,0,0,290.29,566c-2.62-3.18-4.2-4-8.58-9.43a42.44,42.44,0,0,1-5.57-8.14c-1.75-3.56-2.31-6.52-3.43-12.43A113.37,113.37,0,0,1,271,522.28c-.36-5.7-.55-8.68,0-12.85A50.11,50.11,0,0,1,274.43,497c2.2-5.62,4-10.16,8.14-14.57,1.16-1.22.49-.32,9.86-8.15,3.74-3.12,4.45-3.77,6-4.71,3.35-2,6.55-3,11.14-3.86a119.74,119.74,0,0,1,18.86-2.14c10-.35,15-.53,19.28.43,4,.88,12.84,2.83,19.72,9.86,2.84,2.9,2.66,3.93,6,6.85A37.09,37.09,0,0,0,386.71,488,45.3,45.3,0,0,0,400,490.14a32.65,32.65,0,0,0,11.14-1.28c4.46-1.42,7.34-3.59,11.15-6.43,3.55-2.67,6-4.44,8.57-7.72a33.78,33.78,0,0,0,5.14-9.85,43.43,43.43,0,0,0,2.57-15,42.07,42.07,0,0,0-3-15.43A33.22,33.22,0,0,0,427,421.57a34.2,34.2,0,0,0-9.86-6,45.18,45.18,0,0,0-15-3.86A42.68,42.68,0,0,0,388.86,413c-4.27,1.1-7.69,2-11.15,4.71s-3,4.26-7.71,8.15a56.54,56.54,0,0,1-6.86,4.71,60.39,60.39,0,0,1-7.71,4.29,42.79,42.79,0,0,1-11.57,3,98.36,98.36,0,0,1-20.15.85c-5.94-.21-8.91-.32-12.85-1.28a52.13,52.13,0,0,1-12-4.72c-3.69-1.86-5.69-2.91-7.72-5.14-1.22-1.34-1.43-2-3.43-4.29a37.76,37.76,0,0,0-4.71-4.71,27.32,27.32,0,0,0-9-4.71c-3.16-1.06-5.43-1.28-9.86-1.72-4.95-.49-9.35-.89-15,0A31.8,31.8,0,0,0,241,414.28Z" transform="translate(-146.57 -339.39)"/><path class="cls-3" d="M328.43,484.86a35.26,35.26,0,0,0-6.86.85,32.22,32.22,0,0,0-10.28,4.72,43.09,43.09,0,0,0-6,4.71,44,44,0,0,0-6,6.86,41.74,41.74,0,0,0-4.29,7.71,35.09,35.09,0,0,0-2.57,9,43.62,43.62,0,0,0,0,9.86,33.71,33.71,0,0,0,.86,6.86,30.55,30.55,0,0,0,3.42,7.71,53.14,53.14,0,0,0,3.43,5.15,48.55,48.55,0,0,0,3.43,4.28s.73.81,4.29,4.29c0,0,2.13,2.2,3.43,3.85a27.65,27.65,0,0,1,3,5.15c.44.88,1.43,2.88,2.14,4.71,1.05,2.72,1.77,5.86,2.14,11.57.35,5.34-.09,5.34,0,13.72.08,6.65.38,8.06,0,12.43a34.51,34.51,0,0,1-1.71,9,38.46,38.46,0,0,1-3.43,6.85,48.77,48.77,0,0,1-4.72,6.86c-2.78,3.34-3.75,3.44-6.42,6.43a41.33,41.33,0,0,0-9.86,21.43,45.09,45.09,0,0,0,0,10.28,35.69,35.69,0,0,0,1.28,8.15,31.77,31.77,0,0,0,5.58,10.28,41.18,41.18,0,0,0,5.57,6,44.21,44.21,0,0,0,6.85,5.14,31,31,0,0,0,6,3c3,1.08,5.35,1.31,9.86,1.72a56.73,56.73,0,0,0,8.14.43A37.14,37.14,0,0,0,349,700.43a30.13,30.13,0,0,0,8.57-5.57c1.87-1.78,3.13-3.64,5.57-7.29,3.67-5.47,5.5-8.21,6.43-10.71,2-5.31,1.83-9.9,1.72-13.72a43.67,43.67,0,0,0-2.15-12.43A41.23,41.23,0,0,0,363.57,640c-2.31-3.32-2.57-2.53-8.14-9a56.12,56.12,0,0,1-6.43-8.57,25,25,0,0,1-3-6.43c-.7-2.55-.48-3.69-.86-8.57s-.64-4.44-.85-7.72c-.25-3.85.1-4.78.42-12,.39-8.45-.06-8,.43-11.14a38.9,38.9,0,0,1,3.43-11.14,38.15,38.15,0,0,1,6-8.57c4.69-5.34,6.11-4.71,9.43-9a36.82,36.82,0,0,0,5.57-11.15,35.94,35.94,0,0,0,2.57-11.57,34.67,34.67,0,0,0-2.57-13.71,38.19,38.19,0,0,0-6-11.14,40.8,40.8,0,0,0-8.14-7.72,36.11,36.11,0,0,0-8.57-5.14,34.54,34.54,0,0,0-7.72-2.14A43.75,43.75,0,0,0,328.43,484.86Z" transform="translate(-146.57 -339.39)"/><path class="cls-4" d="M538.43,417.75a26.05,26.05,0,0,0-7.29.85,35.7,35.7,0,0,0-6.85,3,55.3,55.3,0,0,0-6,3.43,50.58,50.58,0,0,0-6,4.72,28,28,0,0,0-3.43,3.42c-1,1.32-1.32,2-3.86,7.29a47.59,47.59,0,0,0-2.57,5.57,33.6,33.6,0,0,0-1.29,6.43c-.66,4.81-1,7.21-.85,9,.12,1.62.94,4.22,2.57,9.43,1.56,5,2.08,6,2.57,6.86.78,1.33,1.21,1.7,4.71,5.57,2.31,2.55,4.57,5.14,6.86,7.71a58.92,58.92,0,0,1,4.71,5.57,29.3,29.3,0,0,1,3.43,6c1.05,2.59,1.29,5.48,1.72,11.15.32,4.25.38,7.56.43,9.85.06,3.55,0,6.18,0,6.86,0,1.86-.11,5.12-.43,9-.5,6.09-.75,9.14-1.72,12-1.17,3.5-2.73,5.82-5.14,9.43a54.84,54.84,0,0,1-6.86,8.57A51.41,51.41,0,0,1,502,578a50,50,0,0,1-12.86,5.14c-3.15.76-7.43,1-15.85,1.29-12.23.5-15,.18-16.29,0a52,52,0,0,1-12-3,39.75,39.75,0,0,1-10.29-5.57c-4.55-3.5-4.36-5.16-9-9a39.23,39.23,0,0,0-9.85-6,38.23,38.23,0,0,0-17.57-2.57A42.4,42.4,0,0,0,382,562.6a37.39,37.39,0,0,0-10.71,8.15A36.31,36.31,0,0,0,364.86,581a41.93,41.93,0,0,0-3.43,15.43,36.49,36.49,0,0,0,11.14,28.71,41.71,41.71,0,0,0,10.29,7.72,34.89,34.89,0,0,0,12,3.86,38.07,38.07,0,0,0,11.14-.43c5-.75,9-1.35,13.29-3.86,1.93-1.13,4.71-3.76,10.28-9,3.7-3.48,3.87-3.85,5.57-5.14a39.81,39.81,0,0,1,10.29-5.57c3.85-1.43,7.14-1.8,13.71-2.58a100.24,100.24,0,0,1,14.15-.85,71.85,71.85,0,0,1,11.14.85c5.42.88,10.79,1.75,16.28,5.15,1.54.95,3.89,3.06,8.58,7.28,6.71,6,6.49,6.46,9,8.15A35.24,35.24,0,0,0,532,635.89a38.61,38.61,0,0,0,15.43.43,38.18,38.18,0,0,0,15.43-6.86,41.91,41.91,0,0,0,9-9.43,36,36,0,0,0,6-10.71c1.88-5.79,1.41-10.57.85-16.29-.57-5.89-1-9.77-3.42-14.14-1.38-2.42-3.21-4.47-6.86-8.57s-4.47-4.46-6.43-6.86a41,41,0,0,1-6.43-11.57,48.61,48.61,0,0,1-2.14-8.57A79.79,79.79,0,0,1,552.14,530a99.89,99.89,0,0,1,.43-11.57,63.49,63.49,0,0,1,2.14-12.86A38.08,38.08,0,0,1,559,495.32c2.06-3.31,3-3.56,7.71-9,3.7-4.32,5.54-6.47,7.29-9.43a39.64,39.64,0,0,0,5.14-14.57,37,37,0,0,0-.85-14.15,38.33,38.33,0,0,0-4.72-10.71,44.33,44.33,0,0,0-6-7.71,36.54,36.54,0,0,0-29.14-12Z" transform="translate(-146.57 -339.39)"/><circle class="cls-5" cx="469.15" cy="192.89" r="27.14"/><circle class="cls-6" cx="27.14" cy="184.32" r="27.14"/><path class="cls-7" d="M730.94,577.15V461.71h38.65q5.13,0,10.43.26t10.32.78q5,.51,9.71,1.25a86.62,86.62,0,0,1,8.63,1.77,84.19,84.19,0,0,1,20.64,7.93,57.45,57.45,0,0,1,15,11.82,47.56,47.56,0,0,1,9.17,15.23A52.08,52.08,0,0,1,856.61,519,56.66,56.66,0,0,1,854,536.47a46.35,46.35,0,0,1-8,14.88,53.42,53.42,0,0,1-13.48,11.87,76.8,76.8,0,0,1-19.27,8.41,125.53,125.53,0,0,1-21.08,4.14,229.9,229.9,0,0,1-26.53,1.38Zm37.78-17.69q23.47,0,36.68-5.09,11.69-4.56,17.69-13.28t6-22.26a38.94,38.94,0,0,0-2-12.77,31.72,31.72,0,0,0-5.68-10.14,35.23,35.23,0,0,0-9-7.63,54.42,54.42,0,0,0-12-5.27,78.23,78.23,0,0,0-13.87-2.76,155.16,155.16,0,0,0-17.14-.86H757.69v80.06Z" transform="translate(-146.57 -339.39)"/><path class="cls-7" d="M936.21,562.83a107.19,107.19,0,0,0,15.73-1.21,145.82,145.82,0,0,0,16.59-3.45v16.31a93.81,93.81,0,0,1-15.39,3.27,144.6,144.6,0,0,1-21.51,1.56A96.71,96.71,0,0,1,910.28,577a51.24,51.24,0,0,1-17.63-7.38,37,37,0,0,1-12-13.2q-4.43-8.1-4.42-19.67a45.09,45.09,0,0,1,4.15-19.93,40.64,40.64,0,0,1,11.13-14.15,48.4,48.4,0,0,1,16-8.41,62.27,62.27,0,0,1,18.62-2.8,67.36,67.36,0,0,1,18.51,2.41,39.1,39.1,0,0,1,14.63,7.6,34.67,34.67,0,0,1,9.61,13.33,49.42,49.42,0,0,1,3.44,19.28q-.12,4.32-.33,7.33H902.69A20.31,20.31,0,0,0,913.12,558a33.39,33.39,0,0,0,10.32,3.71A65.65,65.65,0,0,0,936.21,562.83Zm-10.37-55.39a24.92,24.92,0,0,0-8.74,1.42,21,21,0,0,0-6.6,3.88,18.8,18.8,0,0,0-4.42,5.74,23.07,23.07,0,0,0-2.19,7h41.6a19.56,19.56,0,0,0-1.25-7,16.46,16.46,0,0,0-3.71-5.74,17.63,17.63,0,0,0-6.12-3.88A23.53,23.53,0,0,0,925.84,507.44Z" transform="translate(-146.57 -339.39)"/><path class="cls-7" d="M1089.84,493.55l-40.94,83.6h-25.66l-41.06-83.6h27.3l14.74,31.92q6.33,13.46,11.57,26.92h.44q4.59-11.65,11.36-26.4l14.74-32.44Z" transform="translate(-146.57 -339.39)"/><path class="cls-7" d="M1168.13,577.15h-26.75V479.4h-47.17V461.71h121V479.4h-47.06Z" transform="translate(-146.57 -339.39)"/><path class="cls-7" d="M1273,562.83a107.16,107.16,0,0,0,15.72-1.21,146.43,146.43,0,0,0,16.6-3.45v16.31a94,94,0,0,1-15.4,3.27,144.6,144.6,0,0,1-21.51,1.56A96.71,96.71,0,0,1,1247,577a51.24,51.24,0,0,1-17.63-7.38,37.13,37.13,0,0,1-12-13.2q-4.42-8.1-4.42-19.67a45.09,45.09,0,0,1,4.15-19.93,40.55,40.55,0,0,1,11.14-14.15,48.25,48.25,0,0,1,16-8.41,62.27,62.27,0,0,1,18.62-2.8,67.25,67.25,0,0,1,18.51,2.41,39,39,0,0,1,14.63,7.6,34.67,34.67,0,0,1,9.61,13.33,49.42,49.42,0,0,1,3.44,19.28q-.12,4.32-.33,7.33h-69.34A20.31,20.31,0,0,0,1249.86,558a33.39,33.39,0,0,0,10.32,3.71A65.68,65.68,0,0,0,1273,562.83Zm-10.38-55.39a24.86,24.86,0,0,0-8.73,1.42,21.09,21.09,0,0,0-6.61,3.88,18.8,18.8,0,0,0-4.42,5.74,23.35,23.35,0,0,0-2.19,7h41.61a19.35,19.35,0,0,0-1.26-7,16.32,16.32,0,0,0-3.71-5.74,17.63,17.63,0,0,0-6.12-3.88A23.53,23.53,0,0,0,1262.58,507.44Z" transform="translate(-146.57 -339.39)"/><path class="cls-7" d="M1409.33,575.34a78.41,78.41,0,0,1-12,2.8,91.93,91.93,0,0,1-15,1.17,84.91,84.91,0,0,1-21.4-2.59,52.76,52.76,0,0,1-17.36-7.85,37.67,37.67,0,0,1-11.68-13.33,39.8,39.8,0,0,1-4.26-18.85q0-12.09,4.91-20.71a42.2,42.2,0,0,1,12.72-14,55.35,55.35,0,0,1,17.58-7.94,76.58,76.58,0,0,1,19.27-2.54,91.14,91.14,0,0,1,13.65,1,75.85,75.85,0,0,1,11.91,2.72v16.65a72.2,72.2,0,0,0-10.21-2.63,64.6,64.6,0,0,0-11.63-1,45.93,45.93,0,0,0-11.9,1.52,28.86,28.86,0,0,0-10,4.78,23,23,0,0,0-6.93,8.67,30.06,30.06,0,0,0-2.57,13,27.57,27.57,0,0,0,2,10.4,22.56,22.56,0,0,0,5.73,8.32,28.24,28.24,0,0,0,9.61,5.57,40.55,40.55,0,0,0,13.81,2.11,67.74,67.74,0,0,0,12.88-1.12,96.7,96.7,0,0,0,10.92-2.76Z" transform="translate(-146.57 -339.39)"/><path class="cls-7" d="M1458.69,486.3c0,4.31-.1,7.87-.28,10.66a61.42,61.42,0,0,1-.92,7.55h.43a40.69,40.69,0,0,1,5.62-4.84,40.14,40.14,0,0,1,7.32-4.18,48,48,0,0,1,9.06-2.89,51.89,51.89,0,0,1,11.2-1.12,62.13,62.13,0,0,1,10.2.82,44,44,0,0,1,9.29,2.54,32.4,32.4,0,0,1,7.86,4.49,25.66,25.66,0,0,1,6,6.56,24.26,24.26,0,0,1,3.06,7.42,44.67,44.67,0,0,1,1,10.09v53.75h-25.88v-51a37.53,37.53,0,0,0-.44-6.34,12.55,12.55,0,0,0-1.52-4.27,12.37,12.37,0,0,0-6.56-5.35,28.14,28.14,0,0,0-9.71-1.55,35.66,35.66,0,0,0-13.93,2.84,37.83,37.83,0,0,0-11.73,8.11v57.55h-25.88V452.22h25.88Z" transform="translate(-146.57 -339.39)"/></svg>